<?xml version="1.0" encoding="UTF-8" standalone="no"?>
<!-- Created with Inkscape (http://www.inkscape.org/) -->

<svg
   width="160mm"
   height="159.99991mm"
   viewBox="0 0 160 159.99992"
   version="1.1"
   id="svg1"
   inkscape:version="1.4.2 (f4327f4, 2025-05-13)"
   sodipodi:docname="icon.svg"
   inkscape:export-filename="icon\icon-16x16.png"
   inkscape:export-xdpi="2.54"
   inkscape:export-ydpi="2.54"
   xmlns:inkscape="http://www.inkscape.org/namespaces/inkscape"
   xmlns:sodipodi="http://sodipodi.sourceforge.net/DTD/sodipodi-0.dtd"
   xmlns="http://www.w3.org/2000/svg"
   xmlns:svg="http://www.w3.org/2000/svg"
   xmlns:rdf="http://www.w3.org/1999/02/22-rdf-syntax-ns#"
   xmlns:cc="http://creativecommons.org/ns#"
   xmlns:dc="http://purl.org/dc/elements/1.1/">
  <title
     id="title1">Panta Rhei Icon</title>
  <sodipodi:namedview
     id="namedview1"
     pagecolor="#505050"
     bordercolor="#eeeeee"
     borderopacity="1"
     inkscape:showpageshadow="0"
     inkscape:pageopacity="0"
     inkscape:pagecheckerboard="0"
     inkscape:deskcolor="#505050"
     inkscape:document-units="mm"
     inkscape:zoom="0.39834518"
     inkscape:cx="330.11571"
     inkscape:cy="316.30859"
     inkscape:window-width="1920"
     inkscape:window-height="1027"
     inkscape:window-x="1912"
     inkscape:window-y="22"
     inkscape:window-maximized="1"
     inkscape:current-layer="svg1" />
  <defs
     id="defs1" />
  <g
     inkscape:label="Iteration 1"
     inkscape:groupmode="layer"
     id="layer1"
     transform="translate(-16.296909,-70.04482)"
     style="display:none">
    <path
       id="path5-6-1"
       style="display:inline;fill:#6b7073;fill-opacity:1;stroke:none;stroke-width:0.735469;stroke-dasharray:none;stroke-opacity:1"
       d="m 119.09675,129.92192 -0.68272,0.6658 c 0,0 -0.56389,0.55495 -1.90493,1.24554 -1.34105,0.69061 -3.43006,1.48753 -6.40119,1.87932 -2.93812,0.38744 -5.24237,-0.1233 -7.25915,-0.74633 -2.01677,-0.62306 -3.740406,-1.38695 -5.515752,-1.38695 -1.754733,0 -3.423875,0.44194 -4.673789,0.88178 l 0.873077,-0.98335 -1.744326,0.5944 c 0,0 -6.269701,2.10307 -10.087948,2.10307 -2.386926,0 -4.405788,0.66531 -5.69009,1.22999 -0.158742,0.0329 -0.318571,0.0667 -0.479094,0.10205 -13.052496,2.86867 -17.499028,15.6339 -17.499028,15.6339 l -0.142768,-1.86466 c 0,0 -4.016013,4.44677 -5.737221,17.6427 -1.721208,13.19592 -3.586401,29.11719 -7.459119,34.42424 -3.872719,5.30707 -10.327274,6.31105 -10.327274,6.31105 0,0 3.155829,0.43013 5.450772,0.43013 2.294943,0 4.302687,-0.57381 4.302687,-0.57381 0,0 8.606439,-1.14719 14.774101,-9.60978 6.167662,-8.46262 9.179645,-19.65015 9.179645,-19.65015 l -1.577759,0.71658 c 0,0 4.589407,-5.30732 6.597485,-17.06889 2.008074,-11.76161 15.778504,-7.31498 15.778504,-7.31498 l -0.297431,-0.54545 c 1.035597,0.35785 1.910419,0.46354 1.910419,0.46354 l 0.03154,0.004 h 0.03208 c 0,0 3.066093,-0.001 5.876793,-0.13546 2.839284,-0.1352 4.443626,-0.61911 4.443626,-0.61911 l 1.28947,-0.39124 -1.58965,-0.66578 c 0.81224,-0.11275 1.71508,-0.24196 3.32299,-0.59624 4.08642,-0.9004 9.41215,-4.22167 12.81289,-9.66286 3.43203,-5.49125 2.53091,-11.57008 2.53091,-11.57008 z m -0.82457,1.90494 c 0.11193,1.10875 0.45252,5.53968 -2.39272,10.09208 -3.25127,5.20202 -8.43494,8.40086 -12.19789,9.22998 -1.94963,0.42958 -3.21584,0.62521 -3.985119,0.71429 -0.769295,0.089 -1.006241,0.0742 -1.006241,0.0742 l -0.215522,0.9321 0.433344,0.18212 c -0.682634,0.14147 -0.877231,0.26997 -2.530457,0.34868 -2.756859,0.13129 -5.74425,0.13088 -5.78802,0.13088 -0.03898,-0.005 -1.922966,-0.28598 -3.164665,-1.11377 -0.3973,-0.26487 -0.335455,-0.17756 -0.640623,-0.34915 0.493056,-0.0147 0.646078,-0.0502 1.145794,-0.0252 0.19882,0.009 0.339131,0.0325 0.568783,-0.0824 0.114771,-0.0575 0.276142,-0.21201 0.308408,-0.40817 0.03221,-0.19614 -0.03871,-0.332 -0.09285,-0.4164 -0.108411,-0.16878 -0.216577,-0.24228 -0.346846,-0.33631 -0.130201,-0.0941 -0.283302,-0.18867 -0.45439,-0.28738 -0.684317,-0.39478 -1.682581,-0.85986 -2.418342,-1.19429 -0.832201,-0.37828 -1.36731,-0.47155 -2.253613,-0.72712 0.562408,-0.10178 0.79948,-0.23092 1.295885,-0.20728 0.762956,0.0364 1.321335,-0.0895 1.695359,-0.24115 0.374024,-0.15163 0.602642,-0.36561 0.602642,-0.36561 l 0.668072,-0.66807 -0.9321,-0.1565 c 0,0 -3.550098,-0.60447 -5.268195,-0.60447 -0.698251,0 -0.698804,0.0452 -1.148085,0.0888 0.300185,-0.27467 0.315943,-0.43013 0.746324,-0.62141 0.640689,-0.28475 1.02469,-0.56435 1.259737,-0.79941 0.117519,-0.11747 0.197068,-0.22273 0.249841,-0.31069 0.05277,-0.088 0.09061,-0.19859 0.09061,-0.19859 l 0.209574,-0.7358 -0.755018,0.12262 c 0,0 -2.085465,0.3258 -3.048442,0.3258 -0.543622,0 -0.852508,-0.0166 -1.409824,-0.0338 0.02954,-0.0223 0.02272,-0.0218 0.05308,-0.0444 0.591796,-0.43986 1.354788,-0.8823 1.769029,-0.95134 1.269408,-0.21157 2.082477,-0.65114 2.082477,-0.65114 l 1.562201,-0.85203 -1.777724,-0.0613 c 0,0 -1.915188,-0.0677 -2.61282,-0.0677 -0.30863,0 -0.68767,0.0296 -1.249669,0.0573 0.05282,-0.0325 0.178306,-0.12073 0.203168,-0.13318 0.457135,-0.22857 1.819823,-1.01035 1.819823,-1.01035 l 1.052906,-0.60081 -1.17554,-0.29377 c 0,0 -0.832873,-0.20908 -1.813417,-0.27912 -0.250478,-0.0179 -0.435864,-0.11478 -0.784302,-0.20684 1.017153,-0.30033 1.934861,-0.56564 2.566145,-0.77607 1.114712,-0.37156 2.076072,-1.14168 2.076072,-1.14168 l 1.238686,-0.97237 -1.570437,0.10395 c 0,0 -1.999251,0.12072 -3.152314,-0.0613 -0.487649,-0.077 -0.615866,-0.0319 -1.095005,-0.0508 1.191921,-0.51374 2.841907,-1.0442 5.010116,-1.0442 3.278421,0 7.060537,-1.12769 8.853397,-1.69582 l 0.551837,0.70835 c 0,0 3.133739,-1.60659 6.227767,-1.60659 1.484127,0 3.153713,0.69946 5.227923,1.34027 2.07422,0.64082 4.55898,1.1951 7.67419,0.78431 3.0822,-0.40645 5.28393,-1.23902 6.72011,-1.97861 0.88509,-0.4558 0.98228,-0.60929 1.31693,-0.87307 z m -21.486435,28.54746 -0.902824,0.54545 c 0,0 -1.717013,1.03493 -3.268081,1.71229 -0.268549,0.11721 -1.105678,0.29167 -2.145633,0.42051 -1.039942,0.12885 -2.31752,0.23905 -3.621335,0.32582 -2.607626,0.17352 -5.335374,0.2599 -6.543031,0.2599 -1.79662,0 -3.438967,0.45676 -4.271116,0.73443 -0.836526,0.0364 -1.699434,0.10936 -2.586279,0.2544 -1.016718,4.66 -2.411446,8.16818 -3.630035,10.60551 -0.58889,1.17785 -0.644778,1.0733 -1.09409,1.76764 l 0.666704,-0.30292 -0.479093,1.77956 c 0,0 -3.013918,11.28644 -9.316921,19.93476 -2.286808,3.13771 -4.899204,5.30317 -7.30949,6.79058 11.217914,-1.96012 14.409027,-10.98766 15.2143,-16.62457 0.860604,-6.02424 7.458205,-7.31544 7.458205,-7.31544 l -1.290853,-0.71658 c 0,0 0.996266,-1.05885 2.947773,-1.69903 0.900306,0.0888 5.600365,0.5261 8.906467,0.33359 1.900593,-0.11072 3.112408,-0.81047 3.821758,-1.505 0.709351,-0.69455 0.938515,-1.41623 0.938515,-1.41623 l 0.247558,-0.80123 -0.126682,0.0294 c 0.346805,-0.34562 0.39423,-0.36938 0.852017,-0.86026 1.09305,-1.17201 2.337239,-2.61997 2.984846,-3.86433 0.661696,-1.2714 1.222155,-3.55897 1.65738,-5.58528 0.435212,-2.02632 0.720693,-3.76275 0.720693,-3.76275 z m -1.316936,1.8601 c -0.102185,0.5919 -0.207793,1.26366 -0.524403,2.73774 -0.429541,1.99985 -1.032931,4.31261 -1.568609,5.34186 -0.549753,1.05633 -1.765885,2.50272 -2.83475,3.6488 -1.068851,1.14606 -1.989582,2.00651 -1.989582,2.00651 l -1.30412,1.22176 1.498596,-0.33633 c -0.05617,0.0639 -0.01583,0.0579 -0.08418,0.12493 -0.554531,0.54294 -1.505204,1.13195 -3.1967,1.23043 -2.891319,0.16836 -5.941747,-0.15852 -7.325047,-0.28552 0.07558,-0.0587 0.156269,-0.097 0.230625,-0.20089 0.05513,-0.077 0.254752,-0.29532 0.422809,-0.46306 0.168057,-0.16776 0.312989,-0.30018 0.312989,-0.30018 l 1.003946,-0.93852 -1.369557,0.0976 c 0,0 -0.235109,0.0146 -0.524395,0.0146 -0.289287,0 -0.645522,-0.0294 -0.765542,-0.0655 -0.105379,-0.0315 -0.320954,-0.16485 -0.498769,-0.29195 0.223094,-0.25423 0.441396,-0.50531 0.644739,-0.71841 l 0.25396,-0.2686 1.976317,-0.73993 -1.131154,-0.47359 c 0,0 -0.342349,-0.14328 -0.737629,-0.28738 -0.19764,-0.0721 -0.408712,-0.14591 -0.60676,-0.20316 -0.186351,-0.0539 -0.343881,-0.0939 -0.539037,-0.0992 0.03454,-0.0371 0.03133,-0.036 0.06773,-0.0742 0.143458,-0.15034 0.297698,-0.30154 0.429216,-0.4164 0.110969,-0.0969 0.228212,-0.16467 0.236114,-0.17433 v -4.8e-4 -4.4e-4 h -4.57e-4 -4.58e-4 c -0.0012,1e-4 -0.0035,6.5e-4 -0.0068,0.003 0.263099,-0.0919 0.61484,-0.26508 0.936222,-0.42464 0.321383,-0.15954 0.592118,-0.30018 0.592118,-0.30018 l 1.173252,-0.61545 -1.291766,-0.29147 c 0,0 -0.936263,-0.21069 -1.752557,-0.35326 -0.492373,-0.0861 -0.768438,-0.20554 -1.067551,-0.313 0.06953,-0.15685 0.0712,-0.19905 0.188069,-0.39718 0.127169,-0.2156 0.27809,-0.42522 0.42281,-0.56467 0.144722,-0.13944 0.268119,-0.19483 0.342731,-0.20042 1.127335,-0.0845 1.993249,-0.7994 1.993249,-0.7994 l 0.955898,-0.75227 -1.209401,-0.11437 c 0,0 -1.453642,-0.14138 -2.308526,-0.14138 -0.221063,0 -0.315884,-0.0346 -0.570609,-0.0613 0.380711,-0.22976 0.813366,-0.47714 0.987014,-0.50747 0.455531,-0.0796 0.794281,-0.22241 1.023164,-0.35325 0.228882,-0.13088 0.376593,-0.27913 0.376593,-0.27913 l 0.602184,-0.63192 -1.19842,-0.25167 c 0.759671,-0.17419 1.60516,-0.35922 2.572553,-0.35922 1.253589,0 3.977634,-0.087 6.608466,-0.26219 1.315414,-0.0876 2.603982,-0.19733 3.67397,-0.32991 1.069988,-0.13264 1.886815,-0.26334 2.416511,-0.49466 1.195654,-0.52213 1.87481,-0.94667 2.465017,-1.28947 z"
       inkscape:label="Floof Mono" />
    <path
       id="path6"
       style="font-style:normal;font-weight:normal;font-size:2050.28px;font-family:'Times New Roman';display:inline;fill:#6b7073;fill-opacity:1;stroke:none;stroke-width:0.102906px;stroke-linecap:butt;stroke-linejoin:miter;stroke-opacity:1"
       inkscape:label="Delta"
       d="M 78.932745,78.600404 16.296908,221.48914 H 141.56903 L 111.9284,149.86675 c -2.12703,1.59289 -4.36945,2.71106 -6.47943,3.3619 l 1.08402,0.45484 -5.28147,1.60887 c 0,0 -1.826799,0.53954 -4.804648,0.68135 -0.997864,0.0475 -1.836955,0.0721 -2.544641,0.0855 l 1.424007,3.50191 3.423672,-2.0724 -0.69874,4.26287 c 0,0 -0.221517,1.36261 -0.576105,3.09375 L 116.9472,212.73273 H 30.101383 l 19.992875,-45.46306 c 2e-5,-1.5e-4 -1.8e-5,-3.1e-4 0,-4.6e-4 0.02255,-0.17339 0.04522,-0.34636 0.06773,-0.51889 0.881902,-6.76127 2.362722,-11.35771 3.664354,-14.30555 1.301633,-2.94785 2.564315,-4.40014 2.564315,-4.40014 l 3.019615,-3.34588 c 0.453619,-0.66981 0.957045,-1.36248 1.515984,-2.06097 l 14.297752,-32.51291 9.100945,22.38195 h 4.5e-4 c 3.212165,-0.55357 6.931062,-1.74387 6.931062,-1.74387 l 7.14751,-2.4339 -1.75897,1.97906 c 0.238733,-0.0135 0.394623,-0.11761 0.637876,-0.11761 2.224769,0 4.027899,0.85684 5.954129,1.45192 0.42706,0.13196 0.85881,0.25659 1.30137,0.36698 L 82.43557,78.600404 Z" />
    <path
       id="path9"
       style="baseline-shift:baseline;display:inline;overflow:visible;opacity:1;vector-effect:none;fill:#6b7073;fill-opacity:1;stroke:none;stroke-width:0.885485;enable-background:accumulate;stop-color:#000000;stop-opacity:1"
       d="m 132.15809,166.98097 22.07034,54.50771 22.06848,-54.50771 h -9.5512 l -12.51728,30.91271 -12.51729,-30.91271 z"
       inkscape:label="V" />
  </g>
  <path
     id="path1"
     style="display:inline;fill:#6b7073;fill-opacity:1;stroke:none;stroke-width:1.3888;stroke-dasharray:none;stroke-opacity:1"
     d="m 159.76904,6.2018082 -1.2892,1.257245 c 0,0 -1.0648,1.047924 -3.59712,2.35198 -2.53233,1.3040938 -6.47705,2.8089358 -12.0875,3.5487608 -5.54812,0.731612 -9.89928,-0.23283 -13.70761,-1.409311 -3.80831,-1.176538 -7.06309,-2.6190078 -10.41552,-2.6190078 -3.3135,0 -6.46538,0.8345248 -8.82562,1.6650848 l 1.64865,-1.8568818 -3.29384,1.1224188 c 0,0 -11.839217,3.971273 -19.049296,3.971273 -4.507284,0 -8.319545,1.256319 -10.74472,2.322616 -0.299756,0.06213 -0.601565,0.125951 -0.904684,0.192703 -24.647312,5.416972 -33.043796,29.521834 -33.043796,29.521834 l -0.269592,-3.521078 c 0,0 -7.583524,8.396933 -10.833719,33.315095 -3.250194,24.91814 -6.772279,54.98263 -14.085217,65.00404 -7.312939,10.02146 -19.50121559,11.9173 -19.50121559,11.9173 0,0 5.95922059,0.81222 10.29281059,0.81222 4.333591,0 8.124858,-1.08354 8.124858,-1.08354 0,0 16.251726,-2.16626 27.898257,-18.14635 C 57.731496,118.58806 63.419089,97.4624 63.419089,97.4624 l -2.979317,1.35313 c 0,0 8.666278,-10.021927 12.458175,-32.231555 3.79189,-22.209705 29.794893,-13.813036 29.794893,-13.813036 l -0.56165,-1.029986 c 1.95554,0.675736 3.60749,0.875313 3.60749,0.875313 l 0.0596,0.0076 h 0.0606 c 0,0 5.78978,-0.0019 11.09728,-0.255792 5.36148,-0.255301 8.391,-1.169079 8.391,-1.169079 l 2.43493,-0.738787 -3.00177,-1.257206 c 1.53377,-0.212909 3.23862,-0.456899 6.27487,-1.125893 7.71648,-1.700245 17.77317,-7.971872 24.19486,-18.246589 6.48078,-10.369247 4.77918,-21.8480338 4.77918,-21.8480338 z m -1.55705,3.59714 c 0.21136,2.0936768 0.8545,10.4606978 -4.51823,19.0570938 -6.13944,9.823088 -15.92788,15.863527 -23.03354,17.429172 -3.68153,0.811185 -6.07254,1.180598 -7.52519,1.34881 -1.45267,0.16806 -1.9001,0.140113 -1.9001,0.140113 l -0.40698,1.760105 0.81829,0.343901 c -1.28903,0.267141 -1.65649,0.50979 -4.77831,0.65842 -5.20584,0.247918 -10.847,0.247144 -10.92965,0.247144 -0.0736,-0.0094 -3.63118,-0.540023 -5.9759,-2.103157 -0.750233,-0.500159 -0.63345,-0.33529 -1.209705,-0.659307 0.931048,-0.02776 1.220005,-0.09479 2.163625,-0.04759 0.37544,0.01699 0.64039,0.06137 1.07405,-0.155598 0.21672,-0.108578 0.52144,-0.400343 0.58237,-0.770756 0.0608,-0.370375 -0.0731,-0.626923 -0.17533,-0.786297 -0.20471,-0.318711 -0.40897,-0.457503 -0.65496,-0.635062 -0.24586,-0.177691 -0.53496,-0.356269 -0.85803,-0.542665 -1.292211,-0.745472 -3.177255,-1.623693 -4.566608,-2.255204 -1.571464,-0.714315 -2.581922,-0.890438 -4.255547,-1.373037 1.062007,-0.192193 1.509676,-0.436051 2.447048,-0.391411 1.440706,0.06874 2.495106,-0.169005 3.201383,-0.455369 0.706278,-0.286326 1.137982,-0.690389 1.137982,-0.690389 l 1.261532,-1.261531 -1.760102,-0.295523 c 0,0 -6.703727,-1.141434 -9.948047,-1.141434 -1.318522,0 -1.319567,0.08535 -2.167954,0.167683 0.566846,-0.518665 0.596602,-0.812223 1.4093,-1.173422 1.209827,-0.537699 1.934945,-1.065674 2.378789,-1.509543 0.221914,-0.221821 0.372128,-0.420586 0.47178,-0.586683 0.09965,-0.166172 0.171101,-0.375001 0.171101,-0.375001 l 0.395743,-1.389428 -1.425717,0.231546 c 0,0 -3.938029,0.615216 -5.756439,0.615216 -1.026533,0 -1.60981,-0.03135 -2.662202,-0.06383 0.05578,-0.04211 0.0429,-0.04116 0.100233,-0.08384 1.117501,-0.830597 2.558275,-1.666066 3.340496,-1.796436 2.39705,-0.399512 3.932386,-1.229562 3.932386,-1.229562 L 91.539495,28.41717 88.18258,28.301416 c 0,0 -3.616491,-0.127839 -4.933844,-0.127839 -0.582793,0 -1.298543,0.05589 -2.359778,0.108201 0.09974,-0.06137 0.336699,-0.227978 0.383647,-0.251487 0.863218,-0.431614 3.436411,-1.907866 3.436411,-1.907866 l 1.988226,-1.134523 -2.219798,-0.554732 c 0,0 -1.572732,-0.39481 -3.424315,-0.527068 -0.472983,-0.0338 -0.823051,-0.216742 -1.481015,-0.390581 1.920713,-0.567119 3.653641,-1.06811 4.845708,-1.46547 2.104935,-0.701625 3.920292,-2.155859 3.920292,-2.155859 l 2.339038,-1.836147 -2.965491,0.196291 c 0,0 -3.775229,0.227958 -5.952583,-0.115754 -0.920838,-0.145401 -1.162953,-0.06024 -2.067722,-0.09593 2.250731,-0.970107 5.366435,-1.971785 9.460711,-1.971785 6.190714,0 13.332563,-2.129442 16.718063,-3.202254 l 1.04205,1.337593 c 0,0 5.9175,-3.033759 11.76002,-3.033759 2.80251,0 5.95523,1.320805 9.872,2.530861 3.9168,1.210074 8.60883,2.256733 14.49134,1.481029 5.82019,-0.767508 9.97776,-2.339668 12.68973,-3.736252 1.67134,-0.860697 1.85487,-1.150536 2.48679,-1.6486368 z m -40.57331,53.9067898 -1.70482,1.029985 c 0,0 -3.24227,1.954281 -6.17119,3.233354 -0.5071,0.221331 -2.08787,0.550767 -4.05164,0.794059 -1.96375,0.24331 -4.37623,0.451403 -6.838248,0.615253 -4.924037,0.327661 -10.074903,0.490775 -12.355348,0.490775 -3.392597,0 -6.493877,0.862509 -8.065242,1.38684 -1.57963,0.06873 -3.209078,0.206507 -4.883727,0.480389 -1.91989,8.799579 -4.553586,15.424152 -6.854674,20.026615 -1.112013,2.224162 -1.217548,2.026736 -2.065994,3.337872 l 1.258952,-0.57201 -0.904682,3.36038 c 0,0 -5.691247,21.31244 -17.593344,37.64325 -4.31823,5.925 -9.251274,10.01409 -13.80267,12.8228 21.183032,-3.70134 27.20888,-20.74824 28.729494,-31.39254 1.625098,-11.37571 14.083491,-13.81391 14.083491,-13.81391 l -2.437546,-1.35313 c 0,0 1.881271,-1.99945 5.566344,-3.20832 1.700068,0.16769 10.575291,0.99345 16.818276,0.62993 3.588928,-0.20908 5.877228,-1.53043 7.216708,-2.84193 1.33948,-1.31153 1.77222,-2.674294 1.77222,-2.674294 l 0.46747,-1.51298 -0.23922,0.05552 c 0.65488,-0.652642 0.74443,-0.697509 1.60888,-1.624448 2.06403,-2.213132 4.41346,-4.947346 5.63635,-7.297098 1.2495,-2.400813 2.30783,-6.720481 3.12967,-10.546806 0.82182,-3.826344 1.3609,-7.105283 1.3609,-7.105283 z m -2.4868,3.512467 c -0.19295,1.117698 -0.39238,2.386197 -0.99024,5.169734 -0.81111,3.776361 -1.9505,8.143596 -2.96204,10.087151 -1.03811,1.994691 -3.33455,4.72594 -5.35292,6.890108 -2.01833,2.16413 -3.75697,3.788937 -3.75697,3.788937 l -2.462595,2.307075 2.829835,-0.6351 c -0.10607,0.12067 -0.0299,0.10934 -0.15896,0.23591 -1.04714,1.02525 -2.842312,2.13749 -6.036401,2.32345 -5.45974,0.31792 -11.21993,-0.29934 -13.832045,-0.53916 0.142719,-0.11084 0.295086,-0.18316 0.435494,-0.37934 0.104103,-0.1454 0.481054,-0.55766 0.798399,-0.87441 0.317346,-0.31678 0.591024,-0.56683 0.591024,-0.56683 l 1.895773,-1.772232 -2.586164,0.1843 c 0,0 -0.443961,0.02757 -0.990226,0.02757 -0.546267,0 -1.218954,-0.05552 -1.44559,-0.123685 -0.198989,-0.05948 -0.606064,-0.31129 -0.941836,-0.551296 0.421273,-0.480068 0.833497,-0.954188 1.217474,-1.356589 l 0.479559,-0.507203 3.731922,-1.397226 -2.135983,-0.89429 c 0,0 -0.646465,-0.270559 -1.392881,-0.542666 -0.373208,-0.136148 -0.771779,-0.275525 -1.145758,-0.383632 -0.35189,-0.10178 -0.649358,-0.177313 -1.017875,-0.187321 0.06522,-0.07006 0.05916,-0.06798 0.127896,-0.140114 0.270895,-0.28389 0.56215,-0.569404 0.810498,-0.786297 0.209545,-0.182978 0.430938,-0.31095 0.445859,-0.329191 v -9.06e-4 -8.31e-4 h -8.63e-4 -8.65e-4 c -0.0023,1.89e-4 -0.0066,0.0012 -0.01284,0.0057 0.496815,-0.173537 1.161015,-0.500557 1.767888,-0.801857 0.606875,-0.301263 1.118109,-0.566837 1.118109,-0.566837 l 2.215478,-1.162167 -2.43927,-0.550389 c 0,0 -1.767966,-0.397851 -3.309392,-0.667069 -0.929758,-0.162585 -1.451058,-0.388126 -2.01588,-0.591045 0.131295,-0.296183 0.134449,-0.37587 0.355135,-0.750003 0.240136,-0.407123 0.525124,-0.802953 0.798402,-1.066279 0.273281,-0.263308 0.506295,-0.367902 0.647186,-0.378457 2.128771,-0.159564 3.763895,-1.509525 3.763895,-1.509525 l 1.805043,-1.420528 -2.283738,-0.215967 c 0,0 -2.744944,-0.266971 -4.35924,-0.266971 -0.417438,0 -0.59649,-0.06534 -1.077493,-0.115754 0.718905,-0.433861 1.535897,-0.900994 1.8638,-0.958267 0.860189,-0.15031 1.499858,-0.419981 1.932063,-0.667049 0.432203,-0.247144 0.711129,-0.527088 0.711129,-0.527088 l 1.137117,-1.193268 -2.263003,-0.475234 c 1.434503,-0.328927 3.031059,-0.678323 4.857808,-0.678323 2.367179,0 7.511053,-0.164284 12.47891,-0.495099 2.483922,-0.165417 4.917152,-0.372623 6.937642,-0.622976 2.02048,-0.250467 3.56291,-0.497271 4.56315,-0.934077 2.25778,-0.98595 3.54024,-1.787618 4.65474,-2.434935 z"
     inkscape:label="Floof Mono" />
  <metadata
     id="metadata1">
    <rdf:RDF>
      <cc:Work
         rdf:about="">
        <cc:license
           rdf:resource="http://creativecommons.org/licenses/by-nc-sa/4.0/" />
        <dc:title>Panta Rhei Icon</dc:title>
        <dc:date>Monday, December 8th, 2025</dc:date>
        <dc:creator>
          <cc:Agent>
            <dc:title>M3739  https://x.com/Scybur https://github.com/M3739</dc:title>
          </cc:Agent>
        </dc:creator>
        <dc:description>Icon of Panta Rhei, a endeavor to rebase Floof Station on top of Delta-V.</dc:description>
      </cc:Work>
      <cc:License
         rdf:about="http://creativecommons.org/licenses/by-nc-sa/4.0/">
        <cc:permits
           rdf:resource="http://creativecommons.org/ns#Reproduction" />
        <cc:permits
           rdf:resource="http://creativecommons.org/ns#Distribution" />
        <cc:requires
           rdf:resource="http://creativecommons.org/ns#Notice" />
        <cc:requires
           rdf:resource="http://creativecommons.org/ns#Attribution" />
        <cc:prohibits
           rdf:resource="http://creativecommons.org/ns#CommercialUse" />
        <cc:permits
           rdf:resource="http://creativecommons.org/ns#DerivativeWorks" />
        <cc:requires
           rdf:resource="http://creativecommons.org/ns#ShareAlike" />
      </cc:License>
    </rdf:RDF>
  </metadata>
</svg>
