<?xml version="1.0" encoding="UTF-8" standalone="no"?>
<!-- Created with Inkscape (http://www.inkscape.org/) -->

<svg
   width="71.76841mm"
   height="161.90305mm"
   viewBox="0 0 71.76841 161.90305"
   version="1.1"
   id="svg1"
   inkscape:version="1.4.2 (f4327f4, 2025-05-13)"
   sodipodi:docname="splashlogo.svg"
   inkscape:export-filename="splashlogo.png"
   inkscape:export-xdpi="100"
   inkscape:export-ydpi="100"
   xmlns:inkscape="http://www.inkscape.org/namespaces/inkscape"
   xmlns:sodipodi="http://sodipodi.sourceforge.net/DTD/sodipodi-0.dtd"
   xmlns="http://www.w3.org/2000/svg"
   xmlns:svg="http://www.w3.org/2000/svg"
   xmlns:rdf="http://www.w3.org/1999/02/22-rdf-syntax-ns#"
   xmlns:cc="http://creativecommons.org/ns#"
   xmlns:dc="http://purl.org/dc/elements/1.1/">
  <title
     id="title1">Panta Rhei Logo</title>
  <sodipodi:namedview
     id="namedview1"
     pagecolor="#505050"
     bordercolor="#eeeeee"
     borderopacity="1"
     inkscape:showpageshadow="0"
     inkscape:pageopacity="0"
     inkscape:pagecheckerboard="0"
     inkscape:deskcolor="#505050"
     inkscape:document-units="mm"
     inkscape:zoom="1.1266903"
     inkscape:cx="177.95485"
     inkscape:cy="329.28303"
     inkscape:window-width="1920"
     inkscape:window-height="1027"
     inkscape:window-x="1912"
     inkscape:window-y="22"
     inkscape:window-maximized="1"
     inkscape:current-layer="layer2" />
  <defs
     id="defs1">
    <rect
       x="485.34625"
       y="230.12106"
       width="1062.7408"
       height="355.64166"
       id="rect27" />
  </defs>
  <g
     inkscape:groupmode="layer"
     id="layer2"
     inkscape:label="Iteration 2"
     transform="translate(-240.14518,-66.449176)">
    <path
       id="path11"
       style="display:inline;fill:#6b7073;fill-opacity:1;stroke:none;stroke-width:0.419723;stroke-dasharray:none;stroke-opacity:1"
       d="m 299.08509,95.737696 -0.38962,0.37995 c 0,0 -0.32181,0.31671 -1.08711,0.71082 -0.76532,0.39412 -1.95749,0.84891 -3.65307,1.0725 -1.67675,0.22111 -2.99176,-0.0703 -4.14271,-0.42592 -1.15094,-0.35558 -2.13459,-0.79151 -3.14776,-0.79151 -1.00141,0 -1.95396,0.2522 -2.66726,0.50321 l 0.49824,-0.56118 -0.99545,0.33922 c 0,0 -3.57804,1.20019 -5.75706,1.20019 -1.36219,0 -2.51433,0.37969 -3.24726,0.70194 -0.0906,0.0188 -0.1818,0.0381 -0.27342,0.0582 -7.44888,1.637124 -9.98646,8.922064 -9.98646,8.922064 l -0.0815,-1.06414 c 0,0 -2.29189,2.53772 -3.27415,10.06846 -0.98227,7.53073 -2.04671,16.61679 -4.25682,19.64545 -2.21011,3.02866 -5.89364,3.60163 -5.89364,3.60163 0,0 1.80099,0.24547 3.11068,0.24547 1.3097,0 2.45549,-0.32747 2.45549,-0.32747 0,0 4.91158,-0.65468 8.43138,-5.48418 3.5198,-4.8295 5.2387,-11.21407 5.2387,-11.21407 l -0.90041,0.40895 c 0,0 2.61911,-3.02882 3.7651,-9.74099 1.14598,-6.71219 9.00458,-4.17456 9.00458,-4.17456 l -0.16974,-0.31128 c 0.591,0.20422 1.09025,0.26453 1.09025,0.26453 l 0.018,0.003 h 0.0183 c 0,0 1.74977,-5e-4 3.3538,-0.0773 1.62034,-0.0772 2.53591,-0.35332 2.53591,-0.35332 l 0.73589,-0.22328 -0.9072,-0.37996 c 0.46354,-0.0644 0.97878,-0.13808 1.8964,-0.34026 2.33206,-0.51385 5.37138,-2.40925 7.31213,-5.51446 1.95862,-3.133784 1.44436,-6.602894 1.44436,-6.602894 z m -0.47057,1.08712 c 0.0638,0.63275 0.25825,3.16141 -1.36549,5.759404 -1.85546,2.96874 -4.81371,4.79426 -6.96117,5.26743 -1.11263,0.24516 -1.83524,0.3568 -2.27426,0.40764 -0.43902,0.0508 -0.57424,0.0423 -0.57424,0.0423 l -0.123,0.53194 0.2473,0.10393 c -0.38956,0.0807 -0.50062,0.15407 -1.4441,0.19899 -1.5733,0.0749 -3.27816,0.0747 -3.30314,0.0747 -0.0223,-0.003 -1.09741,-0.1632 -1.80603,-0.63561 -0.22673,-0.15116 -0.19144,-0.10134 -0.36559,-0.19925 0.28138,-0.008 0.3687,-0.0286 0.65389,-0.0144 0.11346,0.006 0.19353,0.0186 0.32459,-0.047 0.0655,-0.0328 0.15759,-0.121 0.17601,-0.23294 0.0184,-0.11194 -0.0221,-0.18947 -0.053,-0.23763 -0.0619,-0.0963 -0.1236,-0.13826 -0.19795,-0.19193 -0.0743,-0.0537 -0.16167,-0.10768 -0.2593,-0.164 -0.39054,-0.2253 -0.96023,-0.49071 -1.38012,-0.68157 -0.47493,-0.21588 -0.78031,-0.2691 -1.28611,-0.41495 0.32096,-0.0581 0.45625,-0.13179 0.73954,-0.1183 0.43541,0.0207 0.75407,-0.0511 0.96752,-0.13762 0.21346,-0.0865 0.34392,-0.20865 0.34392,-0.20865 l 0.38127,-0.38126 -0.53194,-0.0893 c 0,0 -2.026,-0.34497 -3.00649,-0.34497 -0.39848,0 -0.3988,0.0258 -0.6552,0.0507 0.17131,-0.15675 0.18031,-0.24547 0.42592,-0.35463 0.36563,-0.1625 0.58478,-0.32207 0.71891,-0.45621 0.0671,-0.0671 0.11247,-0.12712 0.14259,-0.17731 0.0301,-0.0502 0.0517,-0.11333 0.0517,-0.11333 l 0.1196,-0.41991 -0.43088,0.07 c 0,0 -1.19015,0.18593 -1.7397,0.18593 -0.31024,0 -0.48652,-0.009 -0.80457,-0.0193 0.0169,-0.0128 0.013,-0.0124 0.0303,-0.0253 0.33773,-0.25101 0.77316,-0.5035 1.00956,-0.54291 0.72444,-0.12073 1.18845,-0.3716 1.18845,-0.3716 l 0.89152,-0.48623 -1.01452,-0.035 c 0,0 -1.09297,-0.0387 -1.4911,-0.0387 -0.17614,0 -0.39245,0.0169 -0.71317,0.0326 0.0302,-0.0185 0.10176,-0.0689 0.11594,-0.076 0.26088,-0.13044 1.03855,-0.5766 1.03855,-0.5766 l 0.60088,-0.34287 -0.67086,-0.16765 c 0,0 -0.47531,-0.11932 -1.0349,-0.1593 -0.14294,-0.0102 -0.24874,-0.0655 -0.44759,-0.11803 0.58048,-0.17139 1.1042,-0.3228 1.46447,-0.44289 0.63615,-0.21205 1.18478,-0.651544 1.18478,-0.651544 l 0.70691,-0.55492 -0.89623,0.0593 c 0,0 -1.14095,0.0689 -1.79898,-0.035 -0.2783,-0.044 -0.35147,-0.0182 -0.62491,-0.029 0.68022,-0.29319 1.62184,-0.59592 2.85921,-0.59592 1.87095,0 4.02935,-0.64355 5.05251,-0.96778 l 0.31493,0.40424 c 0,0 1.78837,-0.91685 3.55409,-0.91685 0.84698,0 1.79979,0.39917 2.98351,0.76487 1.18372,0.3657 2.60175,0.68203 4.37955,0.44759 1.75898,-0.23195 3.01548,-0.70709 3.83509,-1.12916 0.5051,-0.26012 0.56057,-0.34771 0.75155,-0.49825 z m -12.26202,16.291644 -0.51523,0.31129 c 0,0 -0.97987,0.59062 -1.86505,0.97717 -0.15325,0.0669 -0.63099,0.16645 -1.22448,0.23999 -0.59348,0.0735 -1.32258,0.13642 -2.06665,0.18593 -1.48813,0.099 -3.04482,0.14833 -3.73401,0.14833 -1.02531,0 -1.96258,0.26066 -2.43747,0.41912 -0.4774,0.0208 -0.96985,0.0624 -1.47596,0.1452 -0.58023,2.65939 -1.37618,4.66147 -2.07161,6.05241 -0.33607,0.67218 -0.36797,0.61252 -0.62438,1.00877 l 0.38048,-0.17288 -0.27342,1.01558 c 0,0 -1.72,6.44102 -5.31703,11.3765 -1.30505,1.79065 -2.79592,3.02645 -4.17144,3.87529 6.40192,-1.11861 8.22304,-6.27051 8.6826,-9.48742 0.49114,-3.43795 4.2563,-4.17482 4.2563,-4.17482 l -0.73667,-0.40895 c 0,0 0.56855,-0.60426 1.68225,-0.9696 0.51379,0.0506 3.19605,0.30023 5.0828,0.19037 1.08464,-0.0632 1.77621,-0.46253 2.18103,-0.85889 0.40482,-0.39636 0.5356,-0.80822 0.5356,-0.80822 l 0.14127,-0.45725 -0.0723,0.0167 c 0.19791,-0.19723 0.22498,-0.2108 0.48624,-0.49093 0.62379,-0.66886 1.33382,-1.49518 1.7034,-2.20531 0.37762,-0.72558 0.69747,-2.03107 0.94585,-3.18746 0.24837,-1.15639 0.41129,-2.14735 0.41129,-2.14735 z m -0.75156,1.06153 c -0.0583,0.33779 -0.11858,0.72117 -0.29926,1.5624 -0.24513,1.14128 -0.58949,2.46114 -0.89518,3.04853 -0.31374,0.60283 -1.00778,1.42826 -1.61776,2.08231 -0.60998,0.65405 -1.13543,1.1451 -1.13543,1.1451 l -0.74424,0.69724 0.85523,-0.19194 c -0.0321,0.0364 -0.009,0.0331 -0.0481,0.0713 -0.31646,0.30986 -0.859,0.64599 -1.82431,0.7022 -1.65004,0.0961 -3.39088,-0.0905 -4.18031,-0.16295 0.0432,-0.0335 0.0892,-0.0554 0.13162,-0.11464 0.0315,-0.044 0.14538,-0.16854 0.24129,-0.26427 0.0959,-0.0957 0.17862,-0.17131 0.17862,-0.17131 l 0.57293,-0.53559 -0.78158,0.0556 c 0,0 -0.13418,0.008 -0.29927,0.008 -0.16509,0 -0.36839,-0.0168 -0.43688,-0.0374 -0.0601,-0.018 -0.18316,-0.0941 -0.28464,-0.16661 0.12731,-0.14508 0.25189,-0.28837 0.36794,-0.40998 l 0.14493,-0.15329 1.12786,-0.42226 -0.64554,-0.27028 c 0,0 -0.19537,-0.0818 -0.42095,-0.164 -0.11279,-0.0411 -0.23325,-0.0833 -0.34627,-0.11595 -0.10635,-0.0308 -0.19624,-0.0536 -0.30762,-0.0567 0.0197,-0.0212 0.0179,-0.0205 0.0387,-0.0423 0.0819,-0.0858 0.16989,-0.17209 0.24495,-0.23764 0.0633,-0.0553 0.13023,-0.094 0.13475,-0.0995 v -2.7e-4 -2.5e-4 h -2.7e-4 -2.6e-4 c -5.1e-4,6e-5 -0.002,3.6e-4 -0.004,0.001 0.15015,-0.0524 0.35088,-0.15128 0.53429,-0.24234 0.18341,-0.091 0.33791,-0.17131 0.33791,-0.17131 l 0.66956,-0.35122 -0.7372,-0.16635 c 0,0 -0.53431,-0.12023 -1.00015,-0.2016 -0.28099,-0.0491 -0.43854,-0.11729 -0.60924,-0.17862 0.0397,-0.0895 0.0406,-0.1136 0.10732,-0.22667 0.0726,-0.12304 0.15871,-0.24267 0.2413,-0.32224 0.0826,-0.0796 0.15301,-0.11119 0.19559,-0.11438 0.64336,-0.0482 1.13752,-0.45621 1.13752,-0.45621 l 0.54552,-0.42931 -0.69019,-0.0653 c 0,0 -0.82958,-0.0807 -1.31744,-0.0807 -0.12616,0 -0.18027,-0.0198 -0.32564,-0.035 0.21727,-0.13113 0.46417,-0.2723 0.56327,-0.28961 0.25997,-0.0454 0.45329,-0.12693 0.58391,-0.20159 0.13062,-0.0747 0.21492,-0.1593 0.21492,-0.1593 l 0.34365,-0.36064 -0.68392,-0.14362 c 0.43353,-0.0994 0.91604,-0.205 1.46813,-0.205 0.7154,0 2.26998,-0.0497 3.77136,-0.14963 0.75069,-0.05 1.48605,-0.11262 2.09668,-0.18827 0.61062,-0.0757 1.07678,-0.15029 1.37907,-0.2823 0.68234,-0.29797 1.06993,-0.54025 1.40675,-0.73589 z" />
    <path
       id="path12"
       style="font-style:normal;font-weight:normal;font-size:2050.28px;font-family:'Times New Roman';display:inline;fill:#6b7073;fill-opacity:1;stroke:none;stroke-width:0.0587269px;stroke-linecap:butt;stroke-linejoin:miter;stroke-opacity:1"
       inkscape:label="Delta"
       d="m 276.16404,66.449176 -35.74543,81.544694 h 71.49111 l -16.91551,-40.87393 c -1.21386,0.90904 -2.49358,1.54716 -3.69772,1.91859 l 0.61864,0.25957 -3.01406,0.91816 c 0,0 -1.04254,0.30791 -2.74196,0.38884 -0.56946,0.0271 -1.04832,0.0412 -1.45219,0.0488 l 0.81267,1.9985 1.95383,-1.1827 -0.39875,2.43277 c 0,0 -0.12642,0.77761 -0.32878,1.76556 l 11.11249,27.32867 h -49.56174 l 11.40966,-25.94516 c 10e-6,-9e-5 -10e-6,-1.8e-4 0,-2.6e-4 0.0129,-0.099 0.0258,-0.19767 0.0387,-0.29613 0.50329,-3.85856 1.34837,-6.48169 2.0912,-8.16398 0.74282,-1.6823 1.46342,-2.51111 1.46342,-2.51111 l 1.72325,-1.90944 c 0.25888,-0.38226 0.54617,-0.77755 0.86516,-1.17617 l 8.15953,-18.554684 5.19378,12.77307 h 2.6e-4 c 1.83314,-0.31591 3.95547,-0.9952 3.95547,-0.9952 l 4.07898,-1.38899 -1.00382,1.12942 c 0.13624,-0.008 0.22521,-0.0671 0.36403,-0.0671 1.26964,0 2.29867,0.48899 3.39794,0.82859 0.24372,0.0753 0.49012,0.14644 0.74268,0.20944 l -12.61379,-30.47982 z" />
    <text
       xml:space="preserve"
       style="font-size:146.765px;line-height:0;font-family:'Times New Roman';-inkscape-font-specification:'Times New Roman, ';text-align:start;writing-mode:lr-tb;direction:ltr;text-anchor:start;display:inline;fill:#6b7073;fill-opacity:1;stroke:none;stroke-width:378.208;stroke-linejoin:miter;stroke-dasharray:none;stroke-opacity:1"
       x="237.35678"
       y="226.73785"
       id="text15"
       sodipodi:insensitive="true"><tspan
         sodipodi:role="line"
         id="tspan15"
         style="font-style:normal;font-variant:normal;font-weight:normal;font-stretch:normal;font-family:'Latin Modern Math';-inkscape-font-specification:'Latin Modern Math';stroke:none;stroke-width:378.208"
         x="237.35678"
         y="226.73785">v</tspan></text>
    <text
       xml:space="preserve"
       transform="matrix(0.20442798,0,0,0.20442798,146.89042,98.389784)"
       id="text27"
       style="font-style:italic;font-variant:normal;font-weight:normal;font-stretch:normal;font-size:74.6667px;font-family:LMRoman7;-inkscape-font-specification:'LMRoman7 Italic';text-align:start;writing-mode:lr-tb;direction:ltr;white-space:pre;shape-inside:url(#rect27);display:inline;fill:#6b7073;fill-opacity:1;stroke:none;stroke-width:0.453101;stroke-linejoin:bevel;stroke-dasharray:none;stroke-opacity:0.417143"
       inkscape:label="&quot;Everything flows&quot;"><tspan
         x="485.3457"
         y="299.57567"
         id="tspan2"><tspan
           style="font-style:normal;font-family:'Times New Roman';-inkscape-font-specification:'Times New Roman, '"
           id="tspan1">πάντα ῥεῖ</tspan></tspan></text>
  </g>
  <metadata
     id="metadata1">
    <rdf:RDF>
      <cc:Work
         rdf:about="">
        <dc:title>Panta Rhei Logo</dc:title>
        <dc:date>Monday, December 8th, 2025</dc:date>
        <dc:creator>
          <cc:Agent>
            <dc:title>M3739  https://x.com/Scybur https://github.com/M3739</dc:title>
          </cc:Agent>
        </dc:creator>
        <dc:description>Logo of Panta Rhei, a endeavor to rebase Floof Station on top of Delta-V.</dc:description>
        <cc:license
           rdf:resource="http://creativecommons.org/licenses/by-nc-sa/4.0/" />
      </cc:Work>
      <cc:License
         rdf:about="http://creativecommons.org/licenses/by-nc-sa/4.0/">
        <cc:permits
           rdf:resource="http://creativecommons.org/ns#Reproduction" />
        <cc:permits
           rdf:resource="http://creativecommons.org/ns#Distribution" />
        <cc:requires
           rdf:resource="http://creativecommons.org/ns#Notice" />
        <cc:requires
           rdf:resource="http://creativecommons.org/ns#Attribution" />
        <cc:prohibits
           rdf:resource="http://creativecommons.org/ns#CommercialUse" />
        <cc:permits
           rdf:resource="http://creativecommons.org/ns#DerivativeWorks" />
        <cc:requires
           rdf:resource="http://creativecommons.org/ns#ShareAlike" />
      </cc:License>
    </rdf:RDF>
  </metadata>
</svg>
